<!DOCTYPE svg PUBLIC "-//W3C//DTD SVG 1.1//EN" "http://www.w3.org/Graphics/SVG/1.1/DTD/svg11.dtd">
<!-- Uploaded to: SVG Repo, www.svgrepo.com, Transformed by: SVG Repo Mixer Tools -->
<svg width="800px" height="800px" viewBox="0 0 48 48" xmlns="http://www.w3.org/2000/svg" fill="#492a00">
<g id="SVGRepo_bgCarrier" stroke-width="0"/>
<g id="SVGRepo_tracerCarrier" stroke-linecap="round" stroke-linejoin="round"/>
<g id="SVGRepo_iconCarrier"> <path d="M0 0h48v48H0z" fill="none"/> <g id="Shopicon"> <path d="M24,36c-2.876,0-5.586-0.695-8-1.899L16,44l8-4l8,4l0-9.899C29.586,35.305,26.876,36,24,36z"/> <path d="M24,32c7.732,0,14-6.268,14-14S31.732,4,24,4s-14,6.268-14,14S16.268,32,24,32z M24,12c3.314,0,6,2.686,6,6s-2.686,6-6,6 s-6-2.686-6-6S20.686,12,24,12z"/> <circle cx="24" cy="18" r="2"/> </g> </g>
</svg>